<?xml version="1.0" encoding="UTF-8" standalone="yes"?>
<svg width="400" height="400" viewBox="0 0 400 400" version="1.2" role="img" fill-rule="evenodd" baseProfile="tiny-ps" xmlns="http://www.w3.org/2000/svg">
  <title>bimi-svg-tiny-12-ps</title>
  <g>
    <path d="M68.126 122.982 C 65.728 124.032,64.937 127.146,66.366 129.916 C 69.026 135.072,152.240 273.610,153.211 274.500 C 155.052 276.186,157.672 276.074,159.353 274.238 C 160.039 273.489,169.240 258.383,179.800 240.669 C 190.360 222.955,199.122 208.583,199.270 208.731 C 199.419 208.879,208.124 223.400,218.615 241.000 C 229.178 258.720,238.292 273.580,239.039 274.300 C 240.756 275.954,243.360 276.130,244.967 274.700 C 245.523 274.205,265.462 241.220,289.276 201.400 C 337.786 120.283,334.228 126.844,331.293 123.908 L 329.985 122.600 306.893 122.492 C 285.065 122.389,283.725 122.424,282.429 123.124 C 281.048 123.870,246.895 181.060,245.958 184.196 C 244.807 188.049,249.444 191.437,252.941 189.298 C 253.775 188.788,258.529 181.016,270.620 160.400 L 287.159 132.200 303.402 132.095 C 317.201 132.007,319.596 132.075,319.322 132.549 C 306.389 154.924,242.110 261.470,241.773 261.093 C 241.262 260.521,205.267 200.241,204.962 199.445 C 204.850 199.152,214.172 183.182,225.679 163.956 C 249.214 124.632,248.163 126.779,245.290 123.905 L 243.985 122.600 220.492 122.600 C 197.619 122.600,196.972 122.621,195.944 123.400 C 194.833 124.243,161.032 181.452,160.177 183.937 C 158.773 188.022,163.301 191.549,167.000 189.252 C 167.907 188.688,172.240 181.605,184.738 160.253 L 201.275 132.000 217.450 132.000 L 233.626 132.000 233.113 132.938 C 229.692 139.196,156.153 261.512,155.941 261.296 C 155.315 260.658,78.753 132.313,78.907 132.159 C 78.997 132.069,94.574 132.042,113.521 132.098 L 147.971 132.200 142.964 141.400 C 137.222 151.952,137.065 152.622,139.769 155.100 C 143.729 158.729,145.113 157.382,153.777 141.469 C 161.710 126.902,161.787 126.665,159.431 124.094 L 158.062 122.600 113.731 122.512 C 76.550 122.438,69.194 122.514,68.126 122.982 Z" fill="#f5f4f9"/>
    <path d="M0 199.2 L0 398.4 199.2 398.4 398.4 398.4 398.4 199.2 398.4 0 199.2 0 0 0 0 199.2 Z M159.431 124.094 C161.787 126.665,161.710 126.902,153.777 141.469 C145.113 157.382,143.729 158.729,139.769 155.100 C137.065 152.622,137.222 151.952,142.964 141.400 L147.971 132.200 113.521 132.098 C94.574 132.042,78.997 132.069,78.907 132.159 C78.753 132.313,155.315 260.658,155.941 261.296 C156.153 261.512,229.692 139.196,233.113 132.938 L233.626 132 217.45 132 201.275 132 184.738 160.253 C172.24 181.605,167.907 188.688,167 189.252 C163.301 191.549,158.773 188.022,160.177 183.937 C161.032 181.452,194.833 124.243,195.944 123.4 C196.972 122.621,197.619 122.6,220.492 122.6 L243.985 122.6 245.29 123.905 C248.163 126.779,249.214 124.632,225.679 163.956 C214.172 183.182,204.85 199.152,204.962 199.445 C205.267 200.241,241.262 260.521,241.773 261.093 C242.11 261.47,306.389 154.924,319.322 132.549 C319.596 132.075,317.201 132.007,303.402 132.095 L287.159 132.2 270.62 160.4 C258.529 181.016,253.775 188.788,252.941 189.298 C249.444 191.437,244.807 188.049,245.958 184.196 C246.895 181.06,281.048 123.87,282.429 123.124 C283.725 122.424,285.065 122.389,306.893 122.492 L329.985 122.6 331.293 123.908 C334.228 126.844,337.786 120.283,289.276 201.4 C265.462 241.22,245.523 274.205,244.967 274.7 C243.36 276.13,240.756 275.954,239.039 274.3 C238.292 273.58,229.178 258.72,218.615 241 C208.124 223.4,199.419 208.879,199.27 208.731 C199.122 208.583,190.36 222.955,179.8 240.669 C169.24 258.383,160.039 273.489,159.353 274.238 C157.672 276.074,155.052 276.186,153.211 274.5 C152.24 273.61,69.026 135.072,66.366 129.916 C65.437 128.115,65.389 126.367,66.226 124.75 C67.488 122.31,65.238 122.416,113.731 122.512 L158.062 122.6 159.431 124.094 Z" fill="#390ca2"/>
  </g>
</svg>