
<svg id="svg" version="1.1" xmlns="http://www.w3.org/2000/svg" xmlns:xlink="http://www.w3.org/1999/xlink" width="400" height="400" viewBox="0, 0, 400,400"><g id="svgg">
<path id="path0" d="M68.126 122.982 C 65.728 124.032,64.937 127.146,66.366 129.916 C 69.026 135.072,152.240 273.610,153.211 274.500 C 155.052 276.186,157.672 276.074,159.353 274.238 C 160.039 273.489,169.240 258.383,179.800 240.669 C 190.360 222.955,199.122 208.583,199.270 208.731 C 199.419 208.879,208.124 223.400,218.615 241.000 C 229.178 258.720,238.292 273.580,239.039 274.300 C 240.756 275.954,243.360 276.130,244.967 274.700 C 245.523 274.205,265.462 241.220,289.276 201.400 C 337.786 120.283,334.228 126.844,331.293 123.908 L 329.985 122.600 306.893 122.492 C 285.065 122.389,283.725 122.424,282.429 123.124 C 281.048 123.870,246.895 181.060,245.958 184.196 C 244.807 188.049,249.444 191.437,252.941 189.298 C 253.775 188.788,258.529 181.016,270.620 160.400 L 287.159 132.200 303.402 132.095 C 317.201 132.007,319.596 132.075,319.322 132.549 C 306.389 154.924,242.110 261.470,241.773 261.093 C 241.262 260.521,205.267 200.241,204.962 199.445 C 204.850 199.152,214.172 183.182,225.679 163.956 C 249.214 124.632,248.163 126.779,245.290 123.905 L 243.985 122.600 220.492 122.600 C 197.619 122.600,196.972 122.621,195.944 123.400 C 194.833 124.243,161.032 181.452,160.177 183.937 C 158.773 188.022,163.301 191.549,167.000 189.252 C 167.907 188.688,172.240 181.605,184.738 160.253 L 201.275 132.000 217.450 132.000 L 233.626 132.000 233.113 132.938 C 229.692 139.196,156.153 261.512,155.941 261.296 C 155.315 260.658,78.753 132.313,78.907 132.159 C 78.997 132.069,94.574 132.042,113.521 132.098 L 147.971 132.200 142.964 141.400 C 137.222 151.952,137.065 152.622,139.769 155.100 C 143.729 158.729,145.113 157.382,153.777 141.469 C 161.710 126.902,161.787 126.665,159.431 124.094 L 158.062 122.600 113.731 122.512 C 76.550 122.438,69.194 122.514,68.126 122.982 " stroke="none" fill="#f5f4f9" fill-rule="evenodd"></path>
<path id="path1" d="M0.000 199.200 L 0.000 398.400 199.200 398.400 L 398.400 398.400 398.400 199.200 L 398.400 0.000 199.200 0.000 L 0.000 0.000 0.000 199.200 M159.431 124.094 C 161.787 126.665,161.710 126.902,153.777 141.469 C 145.113 157.382,143.729 158.729,139.769 155.100 C 137.065 152.622,137.222 151.952,142.964 141.400 L 147.971 132.200 113.521 132.098 C 94.574 132.042,78.997 132.069,78.907 132.159 C 78.753 132.313,155.315 260.658,155.941 261.296 C 156.153 261.512,229.692 139.196,233.113 132.938 L 233.626 132.000 217.450 132.000 L 201.275 132.000 184.738 160.253 C 172.240 181.605,167.907 188.688,167.000 189.252 C 163.301 191.549,158.773 188.022,160.177 183.937 C 161.032 181.452,194.833 124.243,195.944 123.400 C 196.972 122.621,197.619 122.600,220.492 122.600 L 243.985 122.600 245.290 123.905 C 248.163 126.779,249.214 124.632,225.679 163.956 C 214.172 183.182,204.850 199.152,204.962 199.445 C 205.267 200.241,241.262 260.521,241.773 261.093 C 242.110 261.470,306.389 154.924,319.322 132.549 C 319.596 132.075,317.201 132.007,303.402 132.095 L 287.159 132.200 270.620 160.400 C 258.529 181.016,253.775 188.788,252.941 189.298 C 249.444 191.437,244.807 188.049,245.958 184.196 C 246.895 181.060,281.048 123.870,282.429 123.124 C 283.725 122.424,285.065 122.389,306.893 122.492 L 329.985 122.600 331.293 123.908 C 334.228 126.844,337.786 120.283,289.276 201.400 C 265.462 241.220,245.523 274.205,244.967 274.700 C 243.360 276.130,240.756 275.954,239.039 274.300 C 238.292 273.580,229.178 258.720,218.615 241.000 C 208.124 223.400,199.419 208.879,199.270 208.731 C 199.122 208.583,190.360 222.955,179.800 240.669 C 169.240 258.383,160.039 273.489,159.353 274.238 C 157.672 276.074,155.052 276.186,153.211 274.500 C 152.240 273.610,69.026 135.072,66.366 129.916 C 65.437 128.115,65.389 126.367,66.226 124.750 C 67.488 122.310,65.238 122.416,113.731 122.512 L 158.062 122.600 159.431 124.094 " stroke="none" fill="#390ca2" fill-rule="evenodd"></path>
</g></svg>
